# This file uses centimeters as units for non-parametric coordinates.

mtllib Rock01.mtl
g default
v -0.929673 -0.176720 0.929673
v -0.309891 -0.176720 1.279818
v 0.309891 -0.176720 1.150956
v 0.929673 -0.176720 0.929673
v -0.604042 0.323473 0.628124
v -0.261115 0.972856 0.628124
v 0.309891 0.176720 0.929673
v 0.684815 0.176720 0.651075
v -0.604042 0.972856 0.285197
v -0.261115 1.172449 0.285197
v 0.309891 0.537450 0.309891
v 0.700284 0.176720 0.147016
v -0.929673 0.176720 -0.309891
v -0.309891 0.537450 -0.309891
v 0.309891 1.095080 -0.309891
v 0.929673 0.034316 -0.309891
v -0.929673 0.176720 -0.786297
v -0.309891 0.176720 -0.929673
v 0.309891 0.734350 -0.929673
v 0.929673 -0.118838 -0.929673
v -1.103036 -0.176720 -0.919481
v -0.497539 -0.176720 -0.990790
v 0.309891 -0.176720 -1.331150
v 0.929673 -0.176720 -0.929673
v -1.056488 -0.176720 -0.309891
v -0.309891 -0.176720 -0.309891
v 0.309891 -0.176720 -0.309891
v 1.074918 -0.176720 -0.309891
v -1.211866 -0.176720 0.309891
v -0.309891 -0.176720 0.309891
v 0.309891 -0.176720 0.309891
v 0.929673 -0.176720 0.309891
vt 0.375000 0.000000
vt 0.458333 0.000000
vt 0.541667 0.000000
vt 0.625000 0.000000
vt 0.375000 0.250000
vt 0.458333 0.250000
vt 0.541667 0.250000
vt 0.625000 0.250000
vt 0.375000 0.333333
vt 0.458333 0.333333
vt 0.541667 0.333333
vt 0.625000 0.333333
vt 0.375000 0.416667
vt 0.458333 0.416667
vt 0.541667 0.416667
vt 0.625000 0.416667
vt 0.375000 0.500000
vt 0.458333 0.500000
vt 0.541667 0.500000
vt 0.625000 0.500000
vt 0.375000 0.750000
vt 0.458333 0.750000
vt 0.541667 0.750000
vt 0.625000 0.750000
vt 0.375000 0.833333
vt 0.458333 0.833333
vt 0.541667 0.833333
vt 0.625000 0.833333
vt 0.375000 0.916667
vt 0.458333 0.916667
vt 0.541667 0.916667
vt 0.625000 0.916667
vt 0.375000 1.000000
vt 0.458333 1.000000
vt 0.541667 1.000000
vt 0.625000 1.000000
vt 0.875000 0.000000
vt 0.791667 0.000000
vt 0.708333 0.000000
vt 0.875000 0.250000
vt 0.791667 0.250000
vt 0.708333 0.250000
vt 0.125000 0.000000
vt 0.208333 0.000000
vt 0.291667 0.000000
vt 0.125000 0.250000
vt 0.208333 0.250000
vt 0.291667 0.250000
vn -0.375687 0.645479 0.664993
vn -0.139585 0.547943 0.824788
vn -0.627168 0.454907 0.632234
vn -0.210178 0.488884 0.846651
vn 0.227385 0.516759 0.825383
vn 0.239461 0.512963 0.824334
vn 0.357493 0.626889 0.692249
vn 0.412181 0.722789 0.554692
vn -0.662430 0.349817 0.662431
vn 0.255091 0.749759 0.610566
vn -0.610642 0.755705 -0.236697
vn 0.055029 0.997491 -0.044527
vn 0.569091 0.710667 0.413627
vn 0.703500 0.589326 0.397218
vn 0.502745 0.809455 0.303366
vn 0.695631 0.712948 0.088337
vn -0.478912 0.707846 -0.519228
vn -0.473600 0.813708 -0.337020
vn 0.428817 0.896497 -0.111400
vn 0.836480 0.547921 0.009211
vn -0.301331 0.906855 -0.294643
vn -0.393705 0.794469 -0.462402
vn 0.320776 0.836422 -0.444411
vn 0.800660 0.581624 -0.143725
vn -0.328281 0.352041 -0.876527
vn -0.264551 0.331723 -0.905523
vn -0.145687 0.355950 -0.923079
vn -0.107386 0.396271 -0.911832
vn 0.047412 0.402795 -0.914061
vn 0.112845 0.396699 -0.910986
vn 0.543673 0.000000 -0.839297
vn 0.491861 0.327868 -0.806582
vn 0.000000 -1.000000 -0.000000
vn 0.000000 -1.000000 0.000000
vn 0.000000 -1.000000 0.000000
vn 0.000000 -1.000000 0.000000
vn 0.000000 -1.000000 0.000000
vn 0.000000 -1.000000 0.000000
vn 0.000000 -1.000000 0.000000
vn 0.000000 -1.000000 0.000000
vn 0.000000 -1.000000 -0.000000
vn 0.000000 -1.000000 -0.000000
vn 0.000000 -1.000000 0.000000
vn 0.000000 -1.000000 0.000000
vn 0.000000 -1.000000 -0.000000
vn 0.000000 -1.000000 0.000000
vn 0.000000 -1.000000 0.000000
vn 0.000000 -1.000000 0.000000
vn 0.973622 0.000000 -0.228167
vn 0.928995 0.318825 -0.187933
vn 0.825731 0.563316 0.029035
vn 0.812435 0.578039 0.076286
vn 0.814266 0.574277 0.084713
vn 0.804115 0.580640 0.127496
vn 0.822008 0.569476 0.000000
vn 0.826139 0.563390 0.009270
vn -0.905720 0.418197 0.069161
vn -0.928387 0.354691 -0.110866
vn -0.917177 0.395427 0.049219
vn -0.895822 0.425657 -0.127742
vn -0.847718 0.510277 0.144886
vn -0.856924 0.458161 0.236155
vn -0.696080 0.644225 0.316933
vn -0.673559 0.441222 0.592994
s 1
g pCube107
usemtl initialShadingGroup
f 1/1/1 2/2/2 5/5/3
f 5/5/3 2/2/2 6/6/4
f 3/3/5 7/7/6 2/2/2
f 2/2/2 7/7/6 6/6/4
f 3/3/5 4/4/7 7/7/6
f 7/7/6 4/4/7 8/8/8
s 3
f 5/5/9 6/6/10 9/9/11
f 9/9/11 6/6/10 10/10/12
f 7/7/13 11/11/14 6/6/10
f 6/6/10 11/11/14 10/10/12
f 7/7/13 8/8/15 11/11/14
f 11/11/14 8/8/15 12/12/16
f 10/10/12 14/14/17 9/9/11
f 9/9/11 14/14/17 13/13/18
f 14/14/17 10/10/12 15/15/19
f 10/10/12 11/11/14 15/15/19
f 12/12/16 16/16/20 11/11/14
f 11/11/14 16/16/20 15/15/19
f 13/13/18 14/14/17 17/17/21
f 17/17/21 14/14/17 18/18/22
f 15/15/19 19/19/23 14/14/17
f 14/14/17 19/19/23 18/18/22
f 15/15/19 16/16/20 19/19/23
f 19/19/23 16/16/20 20/20/24
s 5
f 18/18/25 22/22/26 17/17/27
f 17/17/27 22/22/26 21/21/28
f 19/19/29 23/23/30 18/18/25
f 18/18/25 23/23/30 22/22/26
f 24/24/31 23/23/30 20/20/32
f 19/19/29 20/20/32 23/23/30
s 7
f 21/21/33 22/22/34 25/25/35
f 25/25/35 22/22/34 26/26/36
f 23/23/37 27/27/38 22/22/34
f 22/22/34 27/27/38 26/26/36
f 23/23/37 24/24/39 27/27/38
f 27/27/38 24/24/39 28/28/40
f 26/26/36 30/30/41 25/25/35
f 25/25/35 30/30/41 29/29/42
f 26/26/36 27/27/38 30/30/41
f 30/30/41 27/27/38 31/31/43
f 28/28/40 32/32/44 27/27/38
f 27/27/38 32/32/44 31/31/43
f 29/29/42 30/30/41 1/33/45
f 1/33/45 30/30/41 2/34/46
f 31/31/43 3/35/47 30/30/41
f 30/30/41 3/35/47 2/34/46
f 32/32/44 4/36/48 31/31/43
f 31/31/43 4/36/48 3/35/47
s 9
f 24/37/49 20/40/50 28/38/51
f 28/38/51 20/40/50 16/41/52
f 28/38/51 16/41/52 32/39/53
f 32/39/53 16/41/52 12/42/54
f 4/4/55 32/39/53 8/8/56
f 8/8/56 32/39/53 12/42/54
s 10
f 21/43/57 25/44/58 17/46/59
f 17/46/59 25/44/58 13/47/60
f 25/44/58 29/45/61 13/47/60
f 13/47/60 29/45/61 9/48/62
f 1/1/63 5/5/64 29/45/61
f 29/45/61 5/5/64 9/48/62
