# This file uses centimeters as units for non-parametric coordinates.

mtllib Rock02.mtl
g default
v 2.104173 -0.011965 0.500000
v 2.437506 -0.011965 0.500000
v 2.770840 -0.011965 0.500000
v 3.104173 -0.011965 0.500000
v 2.238396 0.082536 0.389600
v 2.482291 0.089049 0.431124
v 2.770840 0.088598 0.449835
v 2.996119 0.123094 0.412763
v 2.189172 0.080157 0.166667
v 2.451622 0.234431 0.207653
v 2.770840 0.273145 0.166667
v 2.239706 0.225840 -0.166667
v 2.437506 0.331317 -0.029622
v 2.770840 0.331317 -0.029622
v 3.022265 0.189365 -0.049875
v 2.126771 0.071639 -0.428519
v 2.437506 0.331317 -0.362955
v 2.770840 0.331317 -0.362955
v 3.035260 0.184657 -0.412669
v 2.104173 -0.011965 -0.500000
v 2.437506 -0.011965 -0.598063
v 2.770840 -0.011965 -0.683394
v 3.104173 -0.011965 -0.500000
v 2.104173 -0.011965 -0.166667
v 2.437506 -0.011965 -0.166667
v 2.770840 -0.011965 -0.166667
v 3.183996 -0.011965 -0.166667
v 2.104173 -0.011965 0.166667
v 2.437506 -0.011965 0.166667
v 2.770840 -0.011965 0.166667
v 3.104173 -0.011965 0.166667
v 2.909532 0.213490 0.148889
v 3.051077 0.108752 0.304865
v 3.019714 0.199596 0.051770
v 3.081955 0.130990 0.161420
v 2.547703 0.576036 -0.139819
v 2.660643 0.576036 -0.139819
v 2.660643 0.576036 -0.252759
v 2.547703 0.576036 -0.252759
v 2.585492 0.680573 -0.198967
v 2.622854 0.680573 -0.198967
v 2.622854 0.680573 -0.236328
v 2.585492 0.680573 -0.236328
vt 0.375000 0.000000
vt 0.458333 0.000000
vt 0.541667 0.000000
vt 0.625000 0.000000
vt 0.375000 0.250000
vt 0.458333 0.250000
vt 0.541667 0.250000
vt 0.625000 0.250000
vt 0.375000 0.333333
vt 0.458333 0.333333
vt 0.541667 0.333333
vt 0.375000 0.416667
vt 0.458333 0.416667
vt 0.541667 0.416667
vt 0.625000 0.416667
vt 0.375000 0.500000
vt 0.458333 0.500000
vt 0.541667 0.500000
vt 0.625000 0.500000
vt 0.375000 0.750000
vt 0.458333 0.750000
vt 0.541667 0.750000
vt 0.625000 0.750000
vt 0.375000 0.833333
vt 0.458333 0.833333
vt 0.541667 0.833333
vt 0.625000 0.833333
vt 0.375000 0.916667
vt 0.458333 0.916667
vt 0.541667 0.916667
vt 0.625000 0.916667
vt 0.375000 1.000000
vt 0.458333 1.000000
vt 0.541667 1.000000
vt 0.625000 1.000000
vt 0.875000 0.000000
vt 0.791667 0.000000
vt 0.708333 0.000000
vt 0.875000 0.250000
vt 0.791667 0.250000
vt 0.125000 0.000000
vt 0.208333 0.000000
vt 0.291667 0.000000
vt 0.125000 0.250000
vt 0.208333 0.250000
vt 0.291667 0.250000
vt 0.583333 0.333333
vt 0.625000 0.291667
vt 0.666667 0.250000
vt 0.625000 0.375000
vt 0.750000 0.250000
vt 0.708333 0.125000
vt 0.458333 0.416667
vt 0.541667 0.416667
vt 0.541667 0.500000
vt 0.458333 0.500000
vt 0.458333 0.416667
vt 0.541667 0.416667
vt 0.541667 0.500000
vt 0.458333 0.500000
vn 0.000000 0.759692 0.650283
vn -0.050767 0.630923 0.774182
vn -0.025334 0.736418 0.676052
vn -0.058957 0.566705 0.821809
vn -0.002456 0.492929 0.870066
vn 0.005926 0.446379 0.894824
vn 0.000000 0.542573 0.840008
vn 0.008780 0.532177 0.846587
vn -0.061777 0.833337 0.549303
vn -0.228407 0.874689 0.427492
vn -0.353555 0.879126 0.319590
vn -0.541096 0.812081 0.218493
vn -0.035856 0.837245 0.545652
vn 0.065867 0.906814 0.416353
vn -0.388574 0.884424 0.258467
vn -0.574262 0.818540 0.014672
vn 0.315296 0.938593 0.140112
vn 0.499065 0.856390 0.132403
vn 0.401517 0.885784 0.232747
vn 0.852072 0.519502 0.063957
vn 0.744121 0.600080 0.293577
vn -0.552242 0.826043 -0.112613
vn -0.604606 0.772500 -0.194152
vn 0.000000 1.000000 0.000000
vn 0.000000 1.000000 0.000000
vn 0.000000 1.000000 0.000000
vn 0.000000 1.000000 0.000000
vn 0.488407 0.872528 -0.012391
vn 0.488198 0.872725 0.003641
vn 0.485899 0.873994 0.006062
vn -0.210142 0.667535 -0.714309
vn -0.267843 0.573897 -0.773888
vn -0.181196 0.606774 -0.773946
vn -0.104089 0.561992 -0.820567
vn 0.034041 0.644009 -0.764260
vn -0.000788 0.665581 -0.746326
vn 0.302225 0.606325 -0.735547
vn 0.420926 0.487336 -0.765065
vn 0.000000 -1.000000 0.000000
vn 0.000000 -1.000000 0.000000
vn 0.000000 -1.000000 0.000000
vn 0.000000 -1.000000 0.000000
vn -0.000000 -1.000000 0.000000
vn -0.000000 -1.000000 0.000000
vn -0.000000 -1.000000 0.000000
vn -0.000000 -1.000000 0.000000
vn 0.000000 -1.000000 0.000000
vn 0.000000 -1.000000 0.000000
vn 0.000000 -1.000000 0.000000
vn -0.000000 -1.000000 0.000000
vn 0.000000 -1.000000 0.000000
vn 0.000000 -1.000000 0.000000
vn 0.000000 -1.000000 0.000000
vn 0.000000 -1.000000 0.000000
vn 0.888738 0.406017 -0.212825
vn 0.853079 0.510542 -0.107721
vn 0.828951 0.558329 0.033290
vn 0.822764 0.562229 0.083418
vn -0.965357 0.260932 0.000000
vn -0.873071 0.486609 0.030961
vn -0.919183 0.391184 0.045571
vn -0.859741 0.508429 0.048427
vn -0.761392 0.644560 0.069466
vn -0.724080 0.668100 0.171320
vn -0.575685 0.817672 0.000000
vn -0.598488 0.800860 0.020856
vn 0.883800 0.457696 0.097015
vn 0.130114 0.890724 0.435525
vn 0.780851 0.624718 0.000000
vn 0.801799 0.597097 0.024356
vn 0.000000 0.410591 0.911820
vn 0.000000 0.410591 0.911820
vn 0.000000 0.420775 0.907165
vn 0.000000 0.427260 0.904129
vn 0.911820 0.410591 0.000000
vn 0.911820 0.410591 0.000000
vn 0.914892 0.403699 0.000000
vn 0.918121 0.396299 0.000000
vn 0.000000 0.410591 -0.911820
vn 0.000000 0.410591 -0.911820
vn 0.000000 0.384774 -0.923011
vn 0.000000 0.368159 -0.929763
vn -0.911820 0.410591 0.000000
vn -0.911820 0.410591 0.000000
vn -0.915240 0.402910 0.000000
vn -0.917547 0.397627 0.000000
vn 0.000000 0.492452 0.870340
vn 0.000000 0.492452 0.870340
vn 0.940439 0.339964 0.000000
vn 0.940439 0.339964 0.000000
vn 0.000000 0.155269 -0.987872
vn 0.000000 0.155269 -0.987872
vn -0.940439 0.339964 0.000000
vn -0.940439 0.339964 0.000000
s 1
g pCube108
usemtl initialShadingGroup
f 1/1/1 2/2/2 5/5/3
f 5/5/3 2/2/2 6/6/4
f 2/2/2 3/3/5 6/6/4
f 6/6/4 3/3/5 7/7/6
f 4/4/7 8/8/8 3/3/5
f 3/3/5 8/8/8 7/7/6
s 2
f 6/6/9 10/10/10 5/5/11
f 5/5/11 10/10/10 9/9/12
f 7/7/13 11/11/14 6/6/9
f 6/6/9 11/11/14 10/10/10
f 10/10/10 13/13/15 9/9/12
f 9/9/12 13/13/15 12/12/16
f 10/10/10 11/11/14 13/13/15
f 13/13/15 11/11/14 14/14/17
f 34/50/18 32/47/19 35/52/20
f 35/52/20 32/47/19 33/49/21
f 13/13/15 17/17/22 12/12/16
f 12/12/16 17/17/22 16/16/23
s 5
f 40/57/24 41/58/25 43/60/26
f 43/60/26 41/58/25 42/59/27
s 2
f 14/14/17 15/15/28 18/18/29
f 18/18/29 15/15/28 19/19/30
s 7
f 20/20/31 16/16/32 21/21/33
f 16/16/32 17/17/34 21/21/33
f 17/17/34 18/18/35 21/21/33
f 21/21/33 18/18/35 22/22/36
f 18/18/35 19/19/37 22/22/36
f 22/22/36 19/19/37 23/23/38
s 8
f 21/21/39 25/25/40 20/20/41
f 20/20/41 25/25/40 24/24/42
f 22/22/43 26/26/44 21/21/39
f 21/21/39 26/26/44 25/25/40
f 22/22/43 23/23/45 26/26/44
f 26/26/44 23/23/45 27/27/46
f 24/24/42 25/25/40 28/28/47
f 28/28/47 25/25/40 29/29/48
f 25/25/40 26/26/44 29/29/48
f 29/29/48 26/26/44 30/30/49
f 27/27/46 31/31/50 26/26/44
f 26/26/44 31/31/50 30/30/49
f 28/28/47 29/29/48 1/32/51
f 1/32/51 29/29/48 2/33/52
f 29/29/48 30/30/49 2/33/52
f 2/33/52 30/30/49 3/34/53
f 30/30/49 31/31/50 3/34/53
f 3/34/53 31/31/50 4/35/54
s 2
f 23/36/55 19/39/56 27/37/57
f 27/37/57 19/39/56 15/40/58
s 11
f 20/41/59 24/42/60 16/44/61
f 16/44/61 24/42/60 12/45/62
f 24/42/60 28/43/63 12/45/62
f 12/45/62 28/43/63 9/46/64
f 1/1/65 5/5/66 28/43/63
f 28/43/63 5/5/66 9/46/64
s 2
f 27/37/57 15/40/58 31/38/67
f 31/38/67 15/40/58 35/52/20
f 15/40/58 34/51/18 35/52/20
f 11/11/14 32/47/19 14/14/17
f 15/15/28 14/14/17 34/50/18
f 32/47/19 34/50/18 14/14/17
f 7/7/13 8/8/68 11/11/14
f 11/11/14 8/8/68 32/47/19
f 8/8/68 33/48/21 32/47/19
f 4/4/69 31/38/67 8/8/70
f 8/8/70 31/38/67 33/49/21
f 31/38/67 35/52/20 33/49/21
s 13
f 13/13/71 14/14/72 36/53/73
f 36/53/73 14/14/72 37/54/74
s 14
f 14/14/75 18/18/76 37/54/77
f 37/54/77 18/18/76 38/55/78
s 15
f 18/18/79 17/17/80 38/55/81
f 38/55/81 17/17/80 39/56/82
s 16
f 17/17/83 13/13/84 39/56/85
f 39/56/85 13/13/84 36/53/86
s 13
f 36/53/73 37/54/74 40/57/87
f 40/57/87 37/54/74 41/58/88
s 14
f 37/54/77 38/55/78 41/58/89
f 41/58/89 38/55/78 42/59/90
s 15
f 38/55/81 39/56/82 42/59/91
f 42/59/91 39/56/82 43/60/92
s 16
f 36/53/86 40/57/93 39/56/85
f 39/56/85 40/57/93 43/60/94
